<?xml version="1.0" encoding="UTF-8" standalone="no"?>
<!DOCTYPE svg PUBLIC "-//W3C//DTD SVG 1.1//EN" "http://www.w3.org/Graphics/SVG/1.1/DTD/svg11.dtd">
<svg xmlns="http://www.w3.org/2000/svg" version="1.1" viewBox="0 0 500 500">
<path fill="#fdcd57" d="M 206.06,107.69 Q 254.06,107.84 302.91,107.69 A 1.94,1.93 80.1 0 1 304.75,108.99 Q 309.50,122.71 311.96,137.09 Q 313.87,148.31 314.50,154.92 Q 315.37,164.08 314.50,173.00 Q 311.82,200.32 294.24,220.10 Q 287.02,228.21 279.07,233.00 Q 266.89,240.34 253.00,240.75 Q 236.48,241.23 221.31,230.94 Q 207.48,221.55 198.80,205.20 Q 186.49,182.03 189.00,155.75 Q 190.59,139.22 195.25,120.25 Q 196.98,113.23 199.23,108.39 A 0.89,0.85 -80.1 0 1 199.93,107.87 Q 201.65,107.67 206.06,107.69 ZM 289.83,179.75 Q 300.84,169.21 309.68,180.09 Q 310.47,181.06 310.71,179.83 Q 311.77,174.40 312.10,169.13 Q 312.38,164.61 311.91,158.38 Q 310.07,134.21 302.71,111.13 A 1.27,1.26 -8.8 0 0 301.50,110.25 L 201.99,110.25 A 1.25,1.25 -81.6 0 0 200.79,111.14 Q 193.98,132.91 191.67,155.49 Q 190.17,170.19 193.83,184.80 A 0.92,0.92 83.2 0 0 194.72,185.50 L 210.16,185.50 A 1.09,1.09 0.0 0 0 211.25,184.41 L 211.25,177.54 A 2.12,1.85 70.7 0 1 211.83,176.09 L 218.27,169.82 A 1.13,1.10 45.0 0 1 219.83,169.84 L 225.74,175.60 A 3.89,3.31 -71.2 0 1 226.77,178.20 L 226.80,184.94 A 0.53,0.51 0.6 0 0 227.32,185.45 Q 237.39,185.69 247.45,185.32 Q 249.62,185.24 250.93,184.56 Q 252.55,183.71 253.79,182.30 Q 258.58,176.84 263.40,171.40 Q 269.07,165.00 276.12,167.36 Q 279.21,168.39 282.37,171.98 Q 285.46,175.48 288.55,179.64 A 0.86,0.86 49.8 0 0 289.83,179.75 ZM 219.21,173.86 A 0.69,0.69 -52.7 0 0 218.12,174.01 Q 217.09,175.85 215.85,176.54 A 2.65,2.65 75.3 0 0 214.50,178.85 L 214.50,186.66 Q 214.50,188.75 212.41,188.75 L 195.71,188.75 A 0.56,0.56 86.4 0 0 195.16,189.38 Q 195.52,191.98 197.48,191.83 Q 198.45,191.76 198.52,191.76 Q 203.94,191.86 209.35,191.71 Q 216.15,191.52 220.16,191.57 Q 245.43,191.87 270.71,191.52 Q 270.82,191.52 273.28,191.61 Q 275.40,191.69 277.37,191.09 Q 279.40,190.48 281.68,188.20 Q 283.97,185.90 286.48,183.39 A 0.75,0.75 -41.1 0 0 286.55,182.39 Q 282.85,177.60 279.37,173.67 Q 277.29,171.33 275.50,170.61 Q 272.88,169.55 270.32,170.40 Q 268.16,171.11 265.01,174.66 Q 262.45,177.54 259.88,180.42 Q 255.28,185.59 254.65,186.09 Q 250.88,189.01 245.25,188.75 Q 239.56,188.49 226.75,189.00 Q 223.14,189.14 223.38,185.89 Q 223.50,184.18 223.50,184.11 Q 223.50,181.82 223.50,179.04 A 2.16,2.07 -68.4 0 0 222.89,177.54 L 219.21,173.86 ZM 308.88,183.48 Q 307.35,182.71 306.27,181.38 Q 302.84,177.20 298.77,177.85 Q 296.39,178.23 293.12,181.51 Q 288.67,185.96 284.22,190.41 Q 281.63,193.00 279.70,193.84 Q 277.04,195.01 274.00,195.01 Q 236.00,195.00 198.00,195.00 A 0.53,0.52 1.1 0 0 197.47,195.50 Q 197.39,198.69 199.97,198.34 Q 202.40,198.00 202.58,198.00 Q 253.17,198.00 304.35,198.00 A 1.20,1.18 -77.6 0 0 305.43,197.30 Q 307.81,192.03 309.33,186.18 Q 309.52,185.43 309.44,184.80 Q 309.29,183.69 308.88,183.48 ZM 200.15,201.66 L 201.25,204.05 A 0.96,0.66 -8.4 0 0 202.05,204.44 Q 224.41,204.54 246.78,204.50 Q 246.84,204.50 247.72,204.57 Q 249.74,204.74 249.09,201.75 A 0.64,0.63 83.8 0 0 248.47,201.25 L 200.42,201.31 A 0.28,0.25 -10.8 0 0 200.15,201.66 ZM 256.25,201.67 A 0.41 0.41 0.0 0 0 255.84,201.26 L 252.98,201.26 A 0.41 0.41 0.0 0 0 252.57,201.67 L 252.57,237.41 A 0.41 0.41 0.0 0 0 252.98,237.82 L 255.84,237.82 A 0.41 0.41 0.0 0 0 256.25,237.41 L 256.25,201.67 ZM 263.24,201.53 A 0.27 0.27 0.0 0 0 262.97,201.26 L 259.77,201.26 A 0.27 0.27 0.0 0 0 259.50,201.53 L 259.50,236.73 A 0.27 0.27 0.0 0 0 259.77,237.00 L 262.97,237.00 A 0.27 0.27 0.0 0 0 263.24,236.73 L 263.24,201.53 ZM 269.74,201.55 A 0.27 0.27 0.0 0 0 269.47,201.28 L 266.77,201.28 A 0.27 0.27 0.0 0 0 266.50,201.55 L 266.50,234.91 A 0.27 0.27 0.0 0 0 266.77,235.18 L 269.47,235.18 A 0.27 0.27 0.0 0 0 269.74,234.91 L 269.74,201.55 ZM 273.17,202.18 L 273.17,232.06 A 0.44,0.43 85.1 0 0 273.68,232.50 Q 274.97,232.29 275.92,231.36 A 1.29,1.03 72.3 0 0 276.25,230.50 L 276.31,202.19 A 0.89,0.77 -78.1 0 0 275.89,201.43 Q 274.75,200.84 273.62,201.42 A 0.87,0.82 77.2 0 0 273.17,202.18 ZM 282.81,209.81 Q 283.05,204.90 282.85,201.93 A 0.70,0.69 -84.2 0 0 282.34,201.30 Q 279.11,200.44 279.45,203.01 Q 279.76,205.38 279.76,205.54 Q 279.87,216.87 279.58,228.19 A 0.44,0.42 86.8 0 0 280.07,228.64 Q 281.30,228.45 282.07,227.59 Q 282.75,226.82 282.74,225.21 Q 282.69,212.33 282.81,209.81 ZM 289.21,221.09 A 1.59,1.02 74.5 0 0 289.50,220.15 L 289.50,202.00 A 0.77,0.71 -79.9 0 0 289.05,201.30 Q 287.54,200.69 286.77,201.51 Q 286.25,202.07 286.25,203.63 Q 286.25,213.10 286.25,223.03 Q 286.25,224.58 287.20,223.47 L 289.21,221.09 ZM 294.81,215.35 Q 295.86,214.30 295.94,213.44 Q 296.17,210.82 295.95,202.06 A 0.74,0.69 -82.4 0 0 295.47,201.38 Q 294.36,201.00 293.23,201.33 A 0.69,0.67 82.2 0 0 292.75,201.99 L 292.81,216.68 A 0.36,0.32 78.2 0 0 293.27,217.02 Q 293.71,216.80 293.99,216.42 Q 294.69,215.47 294.81,215.35 ZM 300.00,208.10 L 303.28,201.95 A 0.40,0.39 20.1 0 0 303.01,201.38 Q 301.47,201.03 299.92,201.33 A 0.66,0.61 -5.6 0 0 299.38,201.94 L 299.35,207.94 Q 299.34,209.33 300.00,208.10 ZM 206.41,210.33 Q 226.33,210.63 246.25,210.50 Q 246.34,210.50 247.75,210.62 Q 249.82,210.79 249.32,208.55 A 1.01,1.00 83.2 0 0 248.33,207.76 L 204.19,207.93 A 0.39,0.38 -9.2 0 0 203.82,208.43 Q 204.08,209.19 204.65,209.74 Q 205.24,210.31 206.41,210.33 ZM 208.02,214.45 L 209.88,216.67 A 1.23,0.84 -13.4 0 0 210.74,217.00 L 248.50,217.00 A 0.69,0.65 7.1 0 0 249.16,216.52 Q 249.47,215.37 249.16,214.23 A 0.68,0.65 -7.2 0 0 248.51,213.75 L 208.41,213.75 Q 207.44,213.75 208.02,214.45 ZM 214.49,220.47 Q 213.14,220.48 214.09,221.29 L 216.08,222.98 A 1.57,0.89 -13.4 0 0 217.01,223.25 L 248.44,223.19 A 0.80,0.71 9.7 0 0 249.16,222.74 Q 249.60,221.64 249.03,220.66 A 0.91,0.81 -13.7 0 0 248.25,220.25 L 214.49,220.47 ZM 221.62,226.69 Q 219.57,226.70 221.35,227.71 Q 222.24,228.22 223.16,228.71 Q 224.05,229.19 225.09,229.20 Q 236.57,229.29 248.56,229.25 A 0.66,0.66 -83.3 0 0 249.20,228.74 Q 249.75,226.29 247.89,226.44 Q 247.17,226.50 247.11,226.50 Q 234.82,226.66 221.62,226.69 ZM 232.41,232.53 Q 231.67,232.39 231.05,232.46 Q 229.46,232.65 230.92,233.30 Q 239.31,237.05 248.44,237.66 A 0.60,0.45 1.8 0 0 249.08,237.21 L 249.02,233.25 A 0.59,0.52 -0.5 0 0 248.43,232.74 Q 240.54,232.79 233.73,232.70 Q 233.26,232.69 232.41,232.53 Z"/>
<path fill="#fdcd57" d="M 251.36,325.67 Q 259.34,302.15 268.16,278.38 Q 268.66,277.06 269.42,276.57 Q 270.85,275.67 271.98,277.27 A 1.64,1.64 -52.9 0 1 272.19,278.78 Q 262.93,304.95 253.81,329.29 Q 253.00,331.45 251.86,332.07 Q 250.47,332.82 248.98,331.90 Q 248.03,331.31 247.47,329.79 Q 238.45,305.42 229.06,279.32 Q 228.43,277.58 230.03,276.64 Q 232.35,275.28 233.53,278.61 Q 241.80,302.11 250.23,325.68 Q 250.81,327.30 251.36,325.67 Z"/>
<path fill="#fdcd57" d="M 102.91,331.83 Q 100.75,331.79 100.75,329.63 Q 100.71,304.30 100.81,279.34 Q 100.81,277.64 101.41,276.95 Q 102.35,275.87 104.07,276.75 A 0.93,0.86 -78.7 0 1 104.53,277.50 Q 105.11,287.45 105.00,290.75 Q 104.38,309.47 105.05,328.19 A 0.51,0.49 -0.6 0 0 105.56,328.67 L 132.75,328.73 A 0.95,0.94 73.4 0 1 133.54,329.16 Q 135.48,332.14 131.44,332.13 Q 116.68,332.10 102.91,331.83 Z"/>
<circle fill="#fdcd57" cx="281.23" cy="281.79" r="2.71"/>
<path fill="#fdcd57" d="M 174.90,314.83 A 17.31 17.31 0.0 0 1 157.59,332.14 L 154.41,332.14 A 17.31 17.31 0.0 0 1 137.10,314.83 L 137.10,307.89 A 17.31 17.31 0.0 0 1 154.41,290.58 L 157.59,290.58 A 17.31 17.31 0.0 0 1 174.90,307.89 L 174.90,314.83 ZM 147.19,326.56 Q 154.49,331.38 161.80,328.19 Q 166.15,326.30 168.44,322.38 Q 170.68,318.55 171.00,313.50 Q 171.34,308.20 169.90,303.73 Q 168.36,298.92 164.35,296.06 Q 157.97,291.51 150.46,294.53 Q 146.13,296.28 143.74,299.94 Q 141.29,303.71 140.87,308.49 Q 140.31,315.00 142.06,319.69 Q 143.80,324.33 147.19,326.56 Z"/>
<path fill="#fdcd57" d="M 184.19,309.06 Q 179.86,305.82 180.49,300.25 Q 180.98,295.91 183.91,293.39 Q 186.26,291.36 190.53,290.62 Q 198.09,289.30 205.42,292.93 Q 207.10,293.76 206.20,295.41 Q 205.28,297.12 203.90,296.19 Q 202.96,295.55 202.92,295.53 Q 196.86,292.34 190.53,293.88 Q 186.34,294.89 184.80,297.93 Q 182.83,301.82 186.44,306.06 Q 187.09,306.83 189.91,307.72 Q 191.29,308.15 193.64,308.54 Q 198.71,309.39 201.94,310.56 Q 208.41,312.91 208.39,320.25 Q 208.36,328.89 200.25,331.50 Q 191.36,334.36 182.35,329.92 Q 180.99,329.25 180.35,328.28 Q 178.86,326.04 181.94,325.62 A 1.26,1.09 56.5 0 1 182.83,325.87 Q 188.72,330.36 196.75,329.00 Q 199.98,328.45 201.95,326.53 Q 203.82,324.68 204.31,321.66 Q 204.90,317.90 202.38,315.56 Q 200.66,313.97 196.19,312.93 Q 193.30,312.25 189.50,311.50 Q 186.73,310.95 184.19,309.06 Z"/>
<path fill="#fdcd57" d="M 299.16,296.87 Q 306.65,290.77 316.16,290.43 Q 320.51,290.27 323.12,291.74 Q 326.76,293.78 327.25,298.25 Q 327.90,304.12 327.46,329.65 Q 327.43,331.26 326.64,331.95 Q 325.41,333.02 323.91,331.55 A 1.24,1.09 -70.9 0 1 323.56,330.69 Q 323.45,315.84 323.50,301.00 Q 323.51,296.88 320.57,294.95 Q 318.43,293.54 314.67,293.82 Q 305.90,294.48 299.13,300.41 A 1.14,1.10 69.9 0 0 298.76,301.25 L 298.51,330.74 A 1.27,1.13 70.2 0 1 298.16,331.61 Q 296.60,333.11 295.36,331.78 Q 294.69,331.07 294.66,329.62 Q 294.20,310.81 294.74,292.00 A 1.29,1.06 72.9 0 1 295.09,291.14 Q 296.36,289.93 297.52,290.82 Q 298.33,291.44 298.54,292.86 Q 298.77,294.45 298.73,296.66 Q 298.72,297.23 299.16,296.87 Z"/>
<path fill="#fdcd57" d="M 373.3777,314.9060 A 17.31 17.31 0.0 0 1 356.0074,332.1555 L 352.7874,332.1443 A 17.31 17.31 0.0 0 1 335.5380,314.7739 L 335.5623,307.8140 A 17.31 17.31 0.0 0 1 352.9326,290.5645 L 356.1526,290.5757 A 17.31 17.31 0.0 0 1 373.4020,307.9461 L 373.3777,314.9060 ZM 349.52,328.56 Q 353.78,330.07 358.50,328.75 Q 366.20,326.59 368.52,318.75 Q 370.04,313.60 369.00,306.25 Q 368.02,299.29 363.19,296.06 Q 356.53,291.61 349.45,294.21 Q 344.77,295.93 342.35,299.89 Q 340.04,303.66 339.50,309.00 Q 338.63,317.58 342.78,323.36 Q 345.46,327.12 349.52,328.56 Z"/>
<path fill="#fdcd57" d="M 382.65,309.11 Q 380.73,307.77 379.74,305.77 Q 378.87,304.05 378.87,301.59 Q 378.87,292.75 388.26,290.78 Q 395.99,289.16 402.88,292.52 Q 404.17,293.14 404.58,294.05 Q 405.28,295.59 403.48,296.33 A 1.02,0.93 48.8 0 1 402.59,296.23 Q 396.20,292.20 389.25,293.89 Q 385.06,294.91 383.39,297.76 Q 381.78,300.53 383.29,303.63 Q 384.40,305.91 387.34,307.09 Q 391.68,308.84 397.19,309.56 Q 401.77,310.17 404.46,313.44 Q 406.88,316.40 406.82,320.70 Q 406.72,328.61 398.44,331.69 Q 395.53,332.76 389.00,332.25 Q 383.62,331.83 379.88,329.26 Q 378.76,328.49 378.46,327.47 Q 377.93,325.61 380.24,325.50 A 1.51,1.21 57.8 0 1 381.14,325.81 Q 386.16,329.60 393.75,329.25 Q 401.35,328.90 402.75,322.25 Q 404.14,315.66 397.44,313.56 Q 394.64,312.69 387.75,311.50 Q 385.50,311.11 382.65,309.11 Z"/>
<rect fill="#fdcd57" x="279.24" y="290.51" width="3.98" height="41.76" rx="1.70"/>
<path fill="#fec94f" d="M 216.02,374.63 L 217.00,374.69 Q 217.58,374.72 217.07,375.01 Q 214.25,376.62 213.04,374.16 Q 212.40,372.84 213.01,370.84 Q 215.26,363.56 217.45,356.26 Q 217.50,356.11 217.70,353.82 Q 217.87,351.93 220.71,352.67 A 0.50,0.49 -74.4 0 1 221.05,353.29 L 214.92,373.25 A 1.18,1.06 9.4 0 0 216.02,374.63 Z"/>
<ellipse fill="#fec94f" cx="0.00" cy="0.00" transform="translate(171.14,355.60) rotate(107.6)" rx="2.00" ry="1.71"/>
<path fill="#7f6346" fill-opacity="0.965" d="M 259.04,354.00 L 259.00,354.46 L 255.54,354.50 Q 255.37,354.16 255.00,354.21 Q 256.97,353.32 259.04,354.00 Z"/>
<path fill="#fec94f" d="M 259.04,354.00 Q 260.53,354.01 261.63,354.91 A 1.70,0.82 51.8 0 0 262.49,355.33 Q 263.32,355.39 264.08,355.00 Q 264.52,354.78 264.42,355.24 L 263.31,360.70 Q 263.17,361.39 262.74,360.97 Q 262.50,360.73 262.50,360.25 Q 262.52,356.11 259.00,354.46 L 259.04,354.00 Z"/>
<path fill="#fec94f" d="M 150.89,354.47 A 0.37,0.35 -55.8 0 1 150.98,355.05 L 147.62,358.73 Q 146.60,359.84 146.96,358.43 Q 147.39,356.70 148.11,355.27 Q 148.95,353.62 150.89,354.47 Z"/>
<path fill="#fdcd57" d="M 154.50,374.74 Q 155.17,375.19 154.37,375.20 L 148.81,375.25 Q 147.60,375.26 148.67,374.70 Q 150.75,373.60 151.15,371.41 Q 151.55,369.25 151.58,369.14 Q 153.64,362.21 155.32,355.18 A 0.81,0.60 -82.4 0 1 155.92,354.56 L 158.14,354.48 A 0.41,0.39 -83.4 0 1 158.53,354.99 Q 156.03,364.44 153.58,373.02 Q 153.32,373.93 154.50,374.74 Z"/>
<path fill="#fec94f" d="M 164.82,358.72 Q 164.52,359.29 164.48,358.65 Q 164.37,356.75 163.07,355.13 A 0.35,0.35 61.3 0 1 163.23,354.58 Q 167.90,352.99 164.82,358.72 Z"/>
<path fill="#fdcd57" d="M 255.00,354.21 Q 255.37,354.16 255.54,354.50 Q 247.82,359.01 248.25,369.00 Q 248.47,374.15 252.75,375.04 L 252.75,375.46 Q 247.21,375.83 245.44,371.06 Q 243.73,366.47 246.19,361.44 Q 248.95,355.81 255.00,354.21 Z"/>
<path fill="#fec94f" d="M 352.54,374.50 Q 352.16,374.92 352.25,375.46 Q 349.03,375.04 350.00,371.50 Q 351.92,364.47 354.16,357.54 A 1.07,0.95 -88.9 0 1 354.77,356.88 Q 357.35,355.93 356.50,358.75 Q 354.36,365.87 352.31,373.02 Q 352.08,373.82 352.54,374.50 Z"/>
<path fill="#fec94f" d="M 167.79,374.50 Q 167.81,375.05 167.50,375.46 Q 165.35,375.34 165.05,373.63 Q 164.90,372.76 165.49,371.06 Q 166.77,367.35 168.19,363.69 Q 168.93,361.77 166.69,361.94 Q 165.49,362.02 166.34,361.25 Q 166.55,361.06 166.85,361.01 Q 170.56,360.43 170.70,363.35 Q 170.75,364.55 169.79,367.03 Q 169.07,368.87 168.43,370.74 Q 168.41,370.80 167.81,372.06 Q 167.26,373.22 167.79,374.50 Z"/>
<path fill="#fec94f" d="M 210.00,374.29 Q 210.26,374.58 210.25,374.96 Q 206.94,376.54 205.11,374.44 Q 203.75,372.87 203.92,370.27 Q 204.15,366.85 206.56,363.81 Q 208.37,361.54 210.85,361.10 Q 212.21,360.86 212.65,360.88 Q 213.68,360.92 214.31,361.93 Q 214.70,362.57 214.02,362.26 Q 211.63,361.17 210.16,362.55 Q 209.45,363.22 208.32,365.40 Q 206.70,368.50 206.76,372.07 Q 206.78,373.49 207.45,374.10 Q 208.38,374.95 210.00,374.29 Z"/>
<path fill="#fec94f" d="M 228.76,361.80 Q 224.47,364.29 223.85,369.17 Q 223.58,371.37 223.58,372.32 Q 223.61,375.29 227.03,374.17 Q 227.78,373.92 227.67,374.43 Q 227.62,374.68 227.18,374.91 Q 224.20,376.46 222.28,374.73 Q 220.86,373.45 220.86,370.86 Q 220.86,363.62 227.85,361.05 Q 228.90,360.67 229.68,360.90 Q 230.62,361.17 231.33,361.95 Q 232.21,362.92 231.00,362.37 L 229.65,361.74 A 1.02,0.93 -46.3 0 0 228.76,361.80 Z"/>
<path fill="#fdcd57" d="M 322.57,362.12 Q 321.22,361.70 319.70,362.87 Q 319.30,363.17 319.56,362.75 Q 321.71,359.34 325.70,362.47 A 1.52,1.50 28.3 0 1 326.21,364.14 Q 324.38,369.57 323.36,373.73 Q 322.87,375.72 320.33,375.16 A 0.48,0.46 15.7 0 1 319.98,374.56 L 323.51,363.98 A 1.47,1.45 -72.2 0 0 322.57,362.12 Z"/>
<path fill="#fdcd57" d="M 182.09,361.33 A 0.24,0.24 -7.5 0 1 182.34,361.01 Q 185.47,361.35 185.02,363.76 Q 184.76,365.18 183.42,366.41 Q 181.91,367.81 180.24,368.05 Q 177.63,368.43 179.99,367.26 Q 183.74,365.38 182.09,361.33 Z"/>
<path fill="#fec94f" d="M 189.25,361.71 L 189.25,361.29 Q 192.08,360.66 192.88,362.79 Q 193.33,363.99 192.53,365.98 Q 191.15,369.40 190.00,373.75 Q 189.38,376.09 187.02,375.14 A 0.55,0.52 -70.0 0 1 186.73,374.46 Q 189.99,365.44 190.50,363.25 Q 190.84,361.81 189.25,361.71 Z"/>
<path fill="#fec94f" d="M 198.29,374.50 L 198.25,375.46 Q 195.88,375.44 195.52,373.65 Q 195.33,372.72 195.96,370.92 Q 197.05,367.82 198.22,364.74 Q 199.48,361.45 196.00,362.04 Q 195.42,362.08 195.50,361.54 Q 198.33,360.24 199.95,361.86 Q 201.16,363.08 200.74,365.43 Q 200.27,368.10 199.19,370.19 Q 198.01,372.45 198.29,374.50 Z"/>
<path fill="#fec94f" d="M 272.50,375.29 Q 271.92,375.33 272.00,374.79 Q 276.77,370.18 275.82,363.49 Q 275.48,361.07 273.04,361.50 Q 272.77,361.12 272.25,361.21 Q 275.70,360.32 277.43,362.42 Q 278.73,364.01 278.62,366.85 Q 278.40,372.71 272.50,375.29 Z"/>
<path fill="#fec94f" d="M 283.25,361.79 Q 283.02,361.73 282.96,361.50 Q 286.69,360.07 287.16,362.93 Q 287.37,364.19 286.58,366.35 Q 285.68,368.78 284.80,371.23 Q 283.12,375.87 287.91,374.11 Q 288.93,373.73 288.14,374.48 Q 286.13,376.41 283.68,374.98 Q 280.95,373.39 282.08,370.66 Q 282.67,369.24 282.70,369.16 Q 284.11,364.94 284.50,364.00 Q 285.47,361.68 283.25,361.79 Z"/>
<path fill="#fec94f" d="M 301.29,361.75 L 301.25,361.29 Q 304.60,360.34 305.40,363.51 A 1.83,1.25 -51.5 0 1 305.33,364.46 L 301.96,374.34 A 1.48,0.98 -86.3 0 1 301.39,375.09 Q 300.39,375.64 299.41,375.04 A 0.68,0.60 -65.8 0 1 299.17,374.27 Q 300.96,369.18 302.50,364.00 Q 303.15,361.82 301.29,361.75 Z"/>
<path fill="#fdcd57" d="M 308.39,364.30 Q 307.02,360.91 308.86,361.04 Q 310.09,361.13 310.60,362.21 Q 311.20,363.49 309.73,364.65 A 0.86,0.86 -30.3 0 1 308.39,364.30 Z"/>
<path fill="#fec94f" d="M 314.50,361.71 L 314.25,361.29 Q 316.61,360.30 317.51,362.34 Q 317.58,362.51 318.07,363.13 Q 318.48,363.66 318.06,364.56 Q 317.09,366.67 314.74,373.78 Q 314.36,374.92 313.63,375.20 Q 312.86,375.50 312.01,375.15 A 0.56,0.51 -69.7 0 1 311.73,374.46 Q 313.71,368.89 315.44,363.23 Q 315.89,361.76 314.50,361.71 Z"/>
<path fill="#fec94f" d="M 331.50,374.71 Q 331.10,374.96 331.25,375.46 Q 327.38,375.05 328.94,370.94 Q 330.77,366.11 331.01,365.14 Q 332.27,360.07 327.80,363.07 Q 326.49,363.95 327.33,362.62 Q 328.20,361.24 330.01,361.08 Q 333.38,360.78 333.90,363.30 Q 334.16,364.55 333.33,366.97 Q 332.23,370.16 331.12,373.33 Q 330.83,374.16 331.50,374.71 Z"/>
<path fill="#fec94f" d="M 345.21,361.36 Q 344.74,360.94 345.36,360.98 Q 348.34,361.16 348.44,363.15 Q 348.51,364.57 347.25,365.92 Q 345.77,367.50 343.50,368.00 Q 341.81,368.37 343.19,367.44 Q 344.92,366.26 345.89,364.41 Q 346.77,362.75 345.21,361.36 Z"/>
<path fill="#fec94f" d="M 181.25,373.71 Q 181.83,373.67 181.79,374.25 Q 177.34,377.70 174.33,373.56 Q 173.00,371.73 173.51,369.53 Q 174.83,363.85 179.37,361.45 Q 181.58,360.28 179.95,362.18 Q 176.77,365.85 176.54,370.75 Q 176.27,376.55 181.25,373.71 Z"/>
<path fill="#7f6346" fill-opacity="0.965" d="M 189.25,361.29 L 189.25,361.71 L 187.03,364.08 Q 186.73,364.40 186.78,364.01 Q 187.01,361.93 189.25,361.29 Z"/>
<path fill="#fdcd57" d="M 231.79,374.75 Q 231.75,375.15 231.50,375.46 Q 229.51,375.03 229.19,373.33 Q 229.03,372.42 229.67,370.62 Q 230.98,366.90 232.14,362.74 A 2.17,2.16 -88.6 0 1 233.73,361.22 Q 236.19,360.64 235.20,363.08 Q 232.52,369.68 231.50,373.00 Q 231.25,373.83 231.79,374.75 Z"/>
<path fill="#fdcd57" d="M 272.25,361.21 Q 272.77,361.12 273.04,361.50 Q 267.84,365.70 268.69,372.81 Q 268.85,374.20 269.75,374.79 L 269.75,375.46 Q 264.54,374.07 265.92,368.43 Q 267.22,363.15 272.25,361.21 Z"/>
<path fill="#fec94f" d="M 295.39,373.67 Q 297.43,370.98 295.21,374.51 A 1.86,1.54 -81.3 0 1 294.48,375.16 Q 291.11,376.64 289.77,373.07 A 1.44,1.42 -44.7 0 1 289.78,372.05 Q 291.55,367.50 292.56,363.36 Q 292.90,362.01 293.59,361.58 Q 294.48,361.04 295.57,361.52 A 0.60,0.55 -69.4 0 1 295.85,362.23 Q 294.40,366.90 292.91,371.55 Q 291.53,375.85 294.88,374.11 Q 295.18,373.95 295.39,373.67 Z"/>
<path fill="#7f6346" fill-opacity="0.965" d="M 301.25,361.29 L 301.29,361.75 Q 300.01,362.79 299.69,363.44 Q 298.54,365.70 299.00,363.25 Q 299.25,361.91 301.25,361.29 Z"/>
<path fill="#7f6346" fill-opacity="0.965" d="M 314.25,361.29 L 314.50,361.71 Q 313.88,361.91 313.44,362.38 A 0.81,0.47 -53.9 0 1 312.79,362.67 Q 312.37,362.56 312.94,361.94 Q 313.60,361.20 314.25,361.29 Z"/>
<path fill="#fec94f" d="M 342.31,363.31 Q 339.95,367.42 339.81,372.19 Q 339.71,375.97 343.44,374.44 Q 345.25,373.69 346.36,372.12 A 0.75,0.58 -67.4 0 1 346.94,371.79 Q 347.49,371.81 346.79,372.39 Q 346.56,372.58 346.40,372.81 Q 343.54,377.16 338.92,374.93 Q 337.10,374.04 337.00,372.02 Q 336.64,364.50 343.25,361.37 Q 343.51,361.24 343.78,361.23 Q 345.13,361.14 343.52,362.09 Q 342.76,362.54 342.31,363.31 Z"/>
<path fill="#7f6346" fill-opacity="0.965" d="M 195.50,361.54 Q 195.42,362.08 196.00,362.04 Q 192.85,364.66 195.50,361.54 Z"/>
<path fill="#7f6346" fill-opacity="0.965" d="M 282.96,361.50 Q 283.02,361.73 283.25,361.79 Q 282.64,362.17 282.25,362.79 Q 281.67,362.83 281.71,362.25 Q 282.17,361.57 282.96,361.50 Z"/>
<path fill="#7f6346" fill-opacity="0.965" d="M 281.71,362.25 Q 281.67,362.83 282.25,362.79 Q 281.66,363.27 281.36,363.96 Q 281.27,364.17 281.27,364.57 Q 281.26,365.17 280.92,365.11 A 0.51,0.40 -79.8 0 1 280.62,364.54 Q 280.87,363.27 281.71,362.25 Z"/>
<path fill="#fec94f" d="M 256.04,375.00 L 255.96,374.50 Q 258.29,372.28 259.03,367.68 A 0.87,0.87 17.3 0 0 258.54,366.75 Q 257.86,366.44 257.82,366.22 Q 257.78,366.00 258.31,366.01 Q 260.62,366.08 262.92,365.82 Q 263.94,365.71 263.68,366.21 Q 263.48,366.59 262.60,367.28 A 2.70,1.97 85.4 0 0 261.78,368.62 L 260.16,374.78 A 0.33,0.30 28.9 0 1 259.64,374.90 Q 258.09,373.56 256.04,375.00 Z"/>
<path fill="#7f6346" fill-opacity="0.965" d="M 167.50,375.46 Q 167.81,375.05 167.79,374.50 Q 170.09,375.20 170.79,372.81 Q 170.94,372.27 171.18,372.29 A 0.48,0.31 -77.5 0 1 171.40,372.88 Q 170.55,375.65 167.50,375.46 Z"/>
<path fill="#7f6346" fill-opacity="0.965" d="M 181.79,374.25 Q 181.83,373.67 181.25,373.71 Q 181.98,373.22 182.62,372.63 Q 183.61,371.74 183.25,372.75 Q 183.04,373.35 181.79,374.25 Z"/>
<path fill="#7f6346" fill-opacity="0.965" d="M 231.50,375.46 Q 231.75,375.15 231.79,374.75 Q 233.73,375.09 234.62,373.33 Q 234.70,373.17 234.81,373.06 Q 235.57,372.31 235.20,373.23 Q 234.19,375.67 231.50,375.46 Z"/>
<path fill="#7f6346" fill-opacity="0.965" d="M 198.25,375.46 L 198.29,374.50 Q 199.57,375.03 200.94,373.69 Q 202.42,372.24 201.19,374.19 Q 200.19,375.78 198.25,375.46 Z"/>
<path fill="#7f6346" fill-opacity="0.965" d="M 210.25,374.96 Q 210.26,374.58 210.00,374.29 Q 212.81,372.17 210.25,374.96 Z"/>
<path fill="#7f6346" fill-opacity="0.965" d="M 352.25,375.46 Q 352.16,374.92 352.54,374.50 Q 354.14,375.34 355.20,373.92 Q 356.16,372.63 355.30,374.10 Q 354.30,375.81 352.25,375.46 Z"/>
<path fill="#7f6346" fill-opacity="0.965" d="M 255.96,374.50 L 256.04,375.00 Q 254.50,375.75 252.75,375.46 L 252.75,375.04 L 255.96,374.50 Z"/>
<path fill="#7f6346" fill-opacity="0.965" d="M 331.25,375.46 Q 331.10,374.96 331.50,374.71 Q 336.06,374.67 331.25,375.46 Z"/>
<path fill="#7f6346" fill-opacity="0.965" d="M 269.75,374.79 Q 270.85,375.21 272.00,374.79 Q 271.92,375.33 272.50,375.29 Q 271.15,375.69 269.75,375.46 L 269.75,374.79 Z"/>
</svg>
